<svg xmlns="http://www.w3.org/2000/svg" width="210mm" height="297mm" viewBox="0 0 210 297"><path style="fill:#186e9e;fill-opacity:1;fill-rule:nonzero;stroke:none;stroke-width:.35277775" d="M454.626-51.724c-15.07.015-27.297-12.189-27.313-27.258-.015-15.07 12.19-27.298 27.259-27.313 15.069-.015 27.297 12.189 27.312 27.258.015 15.07-12.189 27.298-27.258 27.313M328.895-47.7c0 14.056 10.749 24.805 24.805 24.805s24.804-10.75 24.804-24.805c0-14.056-10.748-24.805-24.804-24.805-19.017 0-24.805 10.749-24.805 24.805M102.346 306.18c0 12.786-10.365 23.151-23.151 23.151-12.787 0-23.151-10.365-23.151-23.151s10.364-23.151 23.15-23.151c12.787 0 23.152 10.365 23.152 23.151M134.592 202c0 14.613-11.846 26.459-26.459 26.459-14.612 0-26.458-11.846-26.458-26.459 0-14.612 11.846-26.458 26.458-26.458 14.613 0 26.459 11.846 26.459 26.458" transform="matrix(.20786 0 0 .20786 40.14 116.995)"/><path style="fill:#eaeaea;fill-opacity:1;fill-rule:nonzero;stroke:none;stroke-width:.35277775" d="M249.52-8.84c10.749-10.748 343.131-105.006 343.131-105.006l48.783 48.782-315.846 232.338-230.684 315.02-48.782-48.783s91.777-330.73 102.526-341.478zM605.88 243.341l19.845 20.671-114.929 88.47-90.124 117.409-20.67-21.498 9.922-92.604L513.277 254.09z" transform="matrix(.20786 0 0 .20786 40.14 116.995)"/><path style="fill:#cecece;fill-opacity:1;fill-rule:nonzero;stroke:none;stroke-width:.35277775" d="M148.648 92.033c-2.48 1.653-8.268 17.363-15.71 41.341l125.677 125.677 66.973-91.777 24.804-18.19L221.408 19.272Z" transform="matrix(.20786 0 0 .20786 40.14 116.995)"/><path style="fill:#186e9e;fill-opacity:1;fill-rule:nonzero;stroke:none;stroke-width:.35277775" d="M591.825-104.751C466.975-69.198 270.19-11.32 256.96-3.051L156.09 96.993c-9.095 13.229-65.32 209.186-99.219 333.21l38.861 38.86 224.896-306.751c0-.827.827-.827 1.654-1.654L630.685-65.89ZM96.558 489.735c-1.654 0-4.134-.827-4.961-1.654L42.814 439.3c-2.48-2.481-3.307-5.788-2.48-8.269 27.285-100.045 92.604-333.21 104.18-344.785L245.385-14.627c11.575-11.576 246.393-78.548 346.439-107.487 3.307-.827 5.787 0 8.268 2.48l48.783 48.783c1.653 1.653 2.48 4.134 2.48 6.614 0 2.48-1.654 4.961-3.307 5.788l-315.02 231.51-229.856 313.366c-1.654 1.654-3.308 3.308-6.615 3.308" transform="matrix(.20786 0 0 .20786 40.14 116.995)"/><path style="fill:#cecece;fill-opacity:1;fill-rule:nonzero;stroke:none;stroke-width:.35277775" d="M408.27 380.594c14.883 11.576 33.9 24.805 53.744 36.38l49.609-64.492 27.285-21.497c-14.883-23.978-30.592-46.302-42.995-60.359l-85.99 85.163z" transform="matrix(.20786 0 0 .20786 40.14 116.995)"/><path style="fill:#186e9e;fill-opacity:1;fill-rule:nonzero;stroke:none;stroke-width:.35277775" d="m601.747 249.956-86.817 9.095-100.872 97.565-9.922 84.336 11.575 11.576 85.99-108.314 1.654-1.654 109.967-81.855zM416.538 473.198c-2.48 0-4.134-.827-5.787-3.307l-21.498-20.67c-1.653-1.654-2.48-4.135-2.48-6.615l10.748-90.95c0-1.654.827-3.308 2.48-4.962l105.007-101.7c1.654-1.653 3.308-2.48 4.961-2.48l94.258-9.921c2.48 0 4.961.827 6.615 2.48l20.67 20.67c1.654 1.654 2.48 4.135 2.48 6.615 0 2.481-1.653 4.134-3.307 5.788l-116.581 86.816-90.951 114.929c-1.654 1.654-3.307 3.307-6.615 3.307" transform="matrix(.20786 0 0 .20786 40.14 116.995)"/><path style="fill:#eaeaea;fill-opacity:1;fill-rule:nonzero;stroke:none;stroke-width:.35277775" d="M-9.276-166.763c28.113-28.112 98.392-3.307 131.465 30.593l362.976 363.802c33.073 33.073 108.313 153.789 80.201 181.9-28.111 28.113-148.828-47.128-181.9-81.028L20.49-35.298c-33.073-33.9-57.878-103.353-29.766-131.465" transform="matrix(.20786 0 0 .20786 40.14 116.995)"/><path style="fill:#cecece;fill-opacity:1;fill-rule:nonzero;stroke:none;stroke-width:.35277775" d="M-17.544-154.36C-30.773-121.287-7.622-65.064 20.49-36.125l362.975 363.802c33.9 33.9 153.79 109.14 181.901 81.03 5.788-5.789 7.442-15.71 4.961-28.94-41.34 8.268-144.694-57.05-175.286-88.47L22.144-83.253C4.78-100.618-10.93-127.904-17.544-154.36" transform="matrix(.20786 0 0 .20786 40.14 116.995)"/><path style="fill:#186e9e;fill-opacity:1;fill-rule:nonzero;stroke:none;stroke-width:.35277775" d="M28.758-170.897c-13.229 0-22.324 3.307-28.938 9.922-23.151 23.151-2.481 86.816 30.592 119.89L395.04 322.716c28.112 28.111 117.409 84.335 157.923 84.335 5.788 0 9.922-.826 12.402-3.307 20.671-20.67-44.648-133.945-81.028-170.325l-364.63-364.63c-23.15-22.323-62.01-39.687-90.95-39.687m523.38 594.486c-48.783 0-143.041-62.839-169.5-88.47L18.01-28.683c-35.554-34.727-63.666-110.794-30.593-143.04 9.095-9.923 23.151-14.883 40.514-14.883 33.073 0 76.895 19.016 102.526 44.648l364.63 363.802c16.536 16.536 43.821 54.57 65.318 95.085 25.632 50.436 31.42 83.509 15.71 98.392-4.96 5.787-13.229 8.268-23.978 8.268" transform="matrix(.20786 0 0 .20786 40.14 116.995)"/><path style="fill:#fff;fill-opacity:1;fill-rule:nonzero;stroke:none;stroke-width:.35277775" d="M288.38 84.591c-2.48 0-4.96-.826-6.614-2.48L99.038-98.963c-12.402-12.403-33.073-23.978-52.917-29.766-4.133-.827-7.44-5.788-5.787-9.922.827-4.96 5.787-7.441 9.922-5.788 23.15 6.615 45.475 19.018 60.358 33.9L294.169 70.535c3.307 3.308 3.307 8.269 0 11.576-1.654 1.654-3.308 2.48-5.788 2.48zM418.192 216.883c-1.654 0-4.134-.827-5.788-2.48l-76.067-74.415c-3.308-3.307-3.308-8.268 0-11.575 3.307-3.307 8.268-3.307 11.575 0l76.068 74.414c3.307 3.307 3.307 8.268 0 11.576-1.654 1.653-3.308 2.48-5.788 2.48M313.185 7.697c-1.653-4.961.827-9.095 4.962-10.749l248.046-79.375c4.134-.826 8.269 1.654 9.922 5.788 1.654 4.96-.827 9.095-4.96 10.749L323.106 13.485h-2.48c-3.307 0-6.615-1.654-7.442-5.788" transform="matrix(.20786 0 0 .20786 40.14 116.995)"/></svg>